<svg xmlns="http://www.w3.org/2000/svg" width="61.663" height="61.663" viewBox="0 0 61.663 61.663"><defs><style>.a{fill:#292929;}</style></defs><path class="a" d="M75.073,118.685H67.631V103.8H82.516v14.884Zm0-2.126h5.316V105.927H69.758v10.632Zm0-2.126H71.884v-6.379h6.379v6.379ZM85.7,118.685H84.642V108.053h2.126v4.253h2.126v2.126H86.768v4.253Zm5.316,0H88.894v-2.126h2.126v-4.253h4.253v2.126H93.147v4.253Zm13.821,0h-1.063v-2.126h-2.126v-2.126H99.526v2.126H97.4v-2.126h2.126v-2.126h2.126v-2.126H97.4v-2.126H95.273v2.126H93.147v-4.253h2.126V103.8H93.147v-2.126H88.894v4.253h2.126v2.126H88.894v-2.126H84.642v-4.253h4.253V99.548H82.516v2.126H80.389V99.548h2.126V97.421H80.389V95.295h2.126V93.169H76.137v2.126H74.01v2.126H71.884V93.169H69.758v8.505H67.631V93.169h2.126V91.042H67.631V80.411h4.253V78.284H67.631V74.032H78.263v2.126h2.126V74.032H91.021v2.126H88.894v4.253h2.126V78.284h4.253v2.126H93.147v4.253h8.505V86.79h6.379V84.663h2.126V82.537h-2.126V80.411h2.126V78.284h-4.253V76.158h-2.126v2.126H99.526V76.158H97.4V74.032H95.273v2.126H93.147V69.779h2.126V67.653H93.147V65.526H91.021v6.379H88.894V65.526H84.642V63.4h2.126V61.274H84.642V59.148h2.126V57.021h2.126v4.253h2.126V59.148h4.253v2.126H93.147v4.253h8.505V61.274h2.126V59.148H99.526V57.021h12.758v4.253h-2.126V59.148h-4.253v2.126h2.126V63.4h2.126v2.126h2.126v2.126h-4.253V63.4h-2.126v2.126h-4.253v2.126h2.126v4.253h-2.126v4.253h2.126V74.032h2.126V69.779h2.126v4.253h-2.126v2.126h4.253v2.126h2.126V74.032h2.126v2.126h2.126V74.032h2.126v2.126h2.126V74.032h2.126v2.126h2.126V74.032h2.126v2.126h2.126v2.126H118.663v2.126h6.379v2.126h2.126v2.126h2.126V86.79h-4.253v2.126h4.253v6.379h-4.253V93.169h-2.126V88.916h-2.126v2.126h-2.126V88.916h-2.126V86.79H114.41V84.663h2.126V82.537h2.126V80.411h-2.126V78.284H114.41v4.253h-2.126v6.379h2.126v2.126h-4.253v2.126h10.632v2.126h2.126v2.126h-2.126v8.505h2.126v2.126h4.253v2.126h2.126v2.126h-2.126v4.253h-2.126v2.126h-2.126v-2.126h-6.379v-2.126h-4.253v2.126h-2.126v2.126h-2.126v-2.126h2.126v-2.126h-4.253v-4.253h-2.126v2.126h-2.126v2.126h2.126v2.126h2.126v2.126Zm19.137-2.126h1.063v-2.126h-2.126v-2.126h2.126v-2.126h-2.126v2.126h-2.126v-2.126h-2.126v2.126h2.126v2.126h2.126v2.126Zm-10.632-4.253h3.189v-2.126h-6.379v-2.126h-2.126v-2.126h-4.253V103.8h4.253v-2.126h2.126V99.548h6.379V97.421h4.253V95.295h-4.253v2.126h-4.253V95.295h-6.379V93.169h2.126V91.042h-2.126V88.916H97.4v2.126H95.273v2.126H93.147V88.916h2.126V86.79H93.147V84.663H91.021V82.537H88.894v2.126h2.126V86.79H88.894v4.253h2.126v4.253H88.894V93.169H86.768V84.663H84.642V82.537h2.126V76.158H80.389v2.126H78.263V76.158H76.137v2.126H74.01V76.158H71.884v2.126H74.01v2.126H71.884v2.126H69.758V86.79H74.01V84.663h2.126v6.379H74.01V88.916H69.758v2.126h2.126v2.126h4.253V91.042h6.379v2.126h4.253v2.126H84.642v2.126h6.379V95.295h4.253v2.126H93.147v4.253h6.379V103.8h2.126v2.126h2.126v2.126h2.126v2.126h4.253v2.126ZM102.716,103.8h-1.063v-2.126H99.526V99.548H97.4V97.421h2.126V95.295h2.126V93.169H97.4V91.042h8.505v2.126h-2.126v6.379h2.126v2.126h-2.126V103.8Zm0-2.126h1.063V99.548h-2.126v2.126ZM81.452,88.916H80.389V86.79h2.126V84.663H78.263V82.537H76.137V80.411h4.253V78.284h4.253v2.126H80.389v2.126h2.126v2.126h2.126V86.79H82.516v2.126Zm-8.505-4.253H71.884V82.537H74.01v2.126Zm25.516,23.39h1.063v-2.126H97.4v2.126Zm17.011,0h3.189v-6.379h-6.379v6.379Zm0-2.126H114.41V103.8h2.126v2.126Zm-6.379-17.011h1.063V86.79h-2.126v2.126Zm13.821-2.126h2.126V82.537h-6.379v2.126h2.126V86.79Zm-11.695-4.253h1.063V80.411h-2.126v2.126Zm6.379-4.253h1.063V76.158h-2.126v2.126ZM98.463,74.032h1.063V71.905h2.126V69.779H99.526v2.126H97.4V69.779H95.273v2.126H97.4v2.126Zm-8.505-8.505h1.063V63.4H88.894v2.126ZM104.842,63.4h1.063V61.274h-2.126V63.4Zm21.263,40.4h-1.063v-2.126h-2.126V99.548h2.126v2.126h2.126V97.421h2.126v4.253h-2.126V103.8Zm-53.158-2.126H71.884V99.548H74.01v2.126Zm31.895-17.011h-1.063V82.537h-2.126V80.411h2.126v2.126h2.126v2.126Zm-6.379-2.126H97.4V80.411h2.126v2.126ZM75.073,71.905H67.631V57.021H82.516V71.905Zm0-2.126h5.316V59.148H69.758V69.779Zm0-2.126H71.884V61.274h6.379v6.379ZM85.7,71.905H84.642V67.653h2.126v4.253Zm25.516,0h-1.063V69.779h2.126v2.126Zm10.632,0H114.41V57.021h14.884V71.905Zm0-2.126h5.316V59.148H116.537V69.779Zm0-2.126h-3.189V61.274h6.379v6.379ZM98.463,63.4H97.4V61.274h2.126V63.4Z" transform="translate(-67.631 -57.021)"/></svg>