<?xml version="1.0"?>
<svg xmlns="http://www.w3.org/2000/svg" viewBox="0 0 512 512" width="512" height="512"><g id="User_Male_Side" data-name="User Male Side"><g id="Filled"><circle cx="256" cy="256" r="248" style="fill:#5fc4b8"/><path d="M441.912,91.885A256.623,256.623,0,0,1,381.02,357.02,255.984,255.984,0,0,1,37.88,374.113,247.951,247.951,0,0,0,256,504c136.967,0,248-111.033,248-248A247.044,247.044,0,0,0,441.912,91.885Z" style="fill:#50b5a6"/><path d="M315.242,377.322A7.959,7.959,0,0,1,312,370.9V348.451a7.957,7.957,0,0,1,3.67-6.719C363.121,311.549,400,259.145,400,202.705h0A130.705,130.705,0,0,0,269.3,72H264A128,128,0,0,0,136,200h0l-28.287,56.575a8,8,0,0,0,3.845,10.86L136,278.545,149.018,331.8A16,16,0,0,0,164.56,344H200a16,16,0,0,1,16,16v11.473a7.958,7.958,0,0,1-3.778,6.788,193.463,193.463,0,0,0-78.561,93.5,248.191,248.191,0,0,0,248.527-2.24A188.276,188.276,0,0,0,315.242,377.322Z" style="fill:#ffe7de"/><path d="M315.242,377.322a7.946,7.946,0,0,1-3.194-5.608A278.941,278.941,0,0,1,145.711,446.8a193.857,193.857,0,0,0-12.05,24.961,248.191,248.191,0,0,0,248.527-2.24A188.276,188.276,0,0,0,315.242,377.322Z" style="fill:#f9d8cd"/><circle cx="200" cy="120" r="16" style="fill:#fff5f2"/><circle cx="240" cy="92" r="12" style="fill:#fff5f2"/></g><g id="Outline"><path d="M380.1,50.53l.02.02a8,8,0,1,0,4.16-14.85,8,8,0,0,0-4.18,14.83Z"/><path d="M39.76,360.24A240.043,240.043,0,0,1,256,16a238.361,238.361,0,0,1,96.67,20.26,8,8,0,1,0,6.45-14.64A254.46,254.46,0,0,0,309.48,5.6a259.487,259.487,0,0,0-105.07-.4,254.636,254.636,0,0,0-91.54,38.52A256.741,256.741,0,0,0,20.12,156.35,256.086,256.086,0,0,0,25.35,367.2a8.039,8.039,0,0,0,7.21,4.52,7.88,7.88,0,0,0,3.47-.8A8.018,8.018,0,0,0,39.76,360.24Z"/><path d="M48.27,383.53a8,8,0,1,0,4.38,14.7,8,8,0,0,0-4.38-14.7Z"/><path d="M505.19,197.1A255.065,255.065,0,0,0,455.38,95.41a257.559,257.559,0,0,0-39.89-39.67,8,8,0,0,0-9.98,12.51A240.006,240.006,0,1,1,73.53,411.91a8,8,0,1,0-12.16,10.4,256.84,256.84,0,0,0,85.71,65.43A255.253,255.253,0,0,0,256,512a257.9,257.9,0,0,0,51.59-5.2,254.636,254.636,0,0,0,91.54-38.52,256.741,256.741,0,0,0,92.75-112.63,254.8,254.8,0,0,0,14.92-48.06,258.3,258.3,0,0,0-1.61-110.49Z"/><path d="M323.29,74.91A137.672,137.672,0,0,0,269.32,64h-5.33a135.547,135.547,0,0,0-55.26,11.7,8,8,0,0,0,6.51,14.62A119.053,119.053,0,0,1,264,80h5.3A122.69,122.69,0,0,1,392,202.7c0,25.21-8,51.18-23.13,75.08a186.905,186.905,0,0,1-57.49,57.2A15.9,15.9,0,0,0,304,348.45V370.9a16.013,16.013,0,0,0,6.5,12.86,180.146,180.146,0,0,1,51.87,59.94,8,8,0,0,0,14.1-7.56v-.01a197.365,197.365,0,0,0-24.45-35.63A193.086,193.086,0,0,0,320,370.89V348.46a203.531,203.531,0,0,0,62.39-62.12,171.427,171.427,0,0,0,18.74-39.95A145.222,145.222,0,0,0,408,202.7a138.565,138.565,0,0,0-40.62-98.08,140.422,140.422,0,0,0-20.52-16.93A138.748,138.748,0,0,0,323.29,74.91Z"/><path d="M170.23,401.44a201.783,201.783,0,0,0-29.21,37.51,8,8,0,0,0,13.7,8.28,186.29,186.29,0,0,1,61.69-62.15A15.942,15.942,0,0,0,224,371.47V360a24,24,0,0,0-24-24H164.55a7.978,7.978,0,0,1-7.76-6.1l-13.94-57-27.98-12.74v-.01l29.12-58.25L144,200a118.913,118.913,0,0,1,24.65-72.86,8.018,8.018,0,0,0-1.49-11.22,8,8,0,0,0-11.22,1.49,135.564,135.564,0,0,0-27.93,80.68l-27.45,54.9a15.985,15.985,0,0,0,7.68,21.73l20.91,9.5,12.1,49.48A23.986,23.986,0,0,0,164.56,352H200a8.036,8.036,0,0,1,8,8v11.46A201.746,201.746,0,0,0,170.23,401.44Z"/><path d="M184.69,107.53a7.881,7.881,0,0,0,4.95-1.72,8,8,0,0,0-4.96-14.28,8,8,0,0,0,.01,16Z"/><path d="M264,256a8.009,8.009,0,0,1-8-8,8,8,0,0,0-16,0,24,24,0,0,0,48,0V216a32,32,0,0,0-64,0,8,8,0,0,0,16,0,16,16,0,0,1,32,0v32A8.009,8.009,0,0,1,264,256Z"/></g></g></svg>
